<svg width="96" height="96" viewBox="0 0 96 96" fill="none" xmlns="http://www.w3.org/2000/svg">
<path d="M0 0H96V96H0V0Z" fill="url(#paint0_linear_343_66)"/>
<path fill-rule="evenodd" clip-rule="evenodd" d="M17 47.9205C17 47.9205 26.2358 26.9975 47.8287 27.0001C70.9373 26.951 80 47.9487 80 47.9487C80 47.9487 70.9373 68.6667 47.8287 68.6184C26.2358 68.6207 17 47.9205 17 47.9205ZM21.6344 47.9205C21.6344 47.9205 29.9153 64.4492 47.9175 64.4473C67.1837 64.486 75.2044 47.9205 75.2044 47.9205C75.2044 47.9205 67.1837 31.1322 47.9175 31.1712C29.9153 31.1693 21.6344 47.9205 21.6344 47.9205Z" fill="white"/>
<path fill-rule="evenodd" clip-rule="evenodd" d="M48.3636 35.3597C55.3013 35.3597 60.9338 40.9882 60.9338 47.9205C60.9338 54.8533 55.3013 60.4817 48.3636 60.4817C41.4259 60.4817 35.7936 54.8533 35.7936 47.9205C35.7936 40.9882 41.4259 35.3597 48.3636 35.3597ZM41.4099 50.8661L46.0676 45.342L41.6192 44.5255C41.1032 45.5464 40.8121 46.6998 40.8121 47.9205C40.8121 48.9655 41.0252 49.9611 41.4099 50.8661ZM42.3895 43.307L49.4621 44.6054L47.9658 40.3853C45.6989 40.503 43.6951 41.6216 42.3895 43.307ZM49.4071 40.4465L51.7782 47.1334L54.6448 43.7335C53.4734 41.9826 51.5886 40.7482 49.4071 40.4465ZM55.3273 44.9995L50.7101 50.4756L55.1232 51.2859C55.6299 50.2724 55.9151 49.1297 55.9151 47.9205C55.9151 46.8852 55.7058 45.8982 55.3273 44.9995ZM54.36 52.5055L47.3606 51.2205L48.8606 55.4506C51.0997 55.3046 53.0737 54.1824 54.36 52.5055ZM47.426 55.409L45.0293 48.6494L42.0958 52.1284C43.2877 53.8963 45.2082 55.1341 47.426 55.409ZM46.845 49.7661L49.1949 50.1974L50.7789 48.3188L49.9778 46.0598L47.5833 45.6203L46.0286 47.464L46.845 49.7661Z" fill="white"/>
<defs>
<linearGradient id="paint0_linear_343_66" x1="48" y1="0" x2="48" y2="96" gradientUnits="userSpaceOnUse">
<stop stop-color="#7A01E6"/>
<stop offset="1" stop-color="#00ACE6"/>
</linearGradient>
</defs>
</svg>
